# xmcd
#
# Track frame offsets:
#	150
#	18473
#	36473
#	51856
#	70749
#	92618
#	106695
#	120559
#	137925
#	157157
#	176437
#	192573
#	209012
#	225926
#
# Disc length: 3230
#
# Revision: 1
# Processed by: cddbd v1.5.1PL0 Copyright (c) Steve Scherf et al.
# Submitted via: CDex 1.51
# Normalized: r0:DSETVAR1
#
DISCID=c30c9c0e
DTITLE=Various Artist - Today's Country Hits - Bonus Disc
DYEAR=2002
DGENRE=Country
TTITLE0=Alan Jackson - Where I Come From
TTITLE1=Blake Shelton - Austin
TTITLE2=Brad Paisley - Wrapped Around
TTITLE3=Chris Cagle - I Breathe In, I Breathe Out
TTITLE4=Sara Evans - I Could Not Ask For More
TTITLE5=Dixie Chicks - If I Fall You're Going Down With Me
TTITLE6=Jamie O'Neal - When I Think About Angels
TTITLE7=Joe Diffie - In Another World
TTITLE8=Lonestar - I'm Already There
TTITLE9=Mark Willis - Loving Every Minute
TTITLE10=Steve Holy - Good Morning Beautiful
TTITLE11=Tim McGraw - My Next Thirty Years
TTITLE12=Toby Keith - You Shouldn't Kiss Me Like This
TTITLE13=Travis Tritt - Love Of A Woman
EXTD=YEAR: 2002
EXTT0=
EXTT1=
EXTT2=
EXTT3=
EXTT4=
EXTT5=
EXTT6=
EXTT7=
EXTT8=
EXTT9=
EXTT10=
EXTT11=
EXTT12=
EXTT13=
PLAYORDER=
